<svg width="16" height="17" viewBox="0 0 16 17" fill="none" xmlns="http://www.w3.org/2000/svg">
<path d="M13.5136 0.591187H2.28076C1.24641 0.591187 0.384283 1.44301 0.639831 2.44461C0.911999 3.50596 1.41319 4.49488 2.10823 5.34192C2.80326 6.18896 3.67528 6.87359 4.66307 7.34775C5.43345 7.71657 6.02505 8.44109 6.02505 9.29478V14.9898C6.02514 15.1493 6.06598 15.3062 6.14369 15.4455C6.22141 15.5847 6.33343 15.7019 6.46912 15.7857C6.60481 15.8695 6.75967 15.9173 6.91901 15.9245C7.07834 15.9316 7.23687 15.898 7.37955 15.8267L9.25169 14.8906C9.40716 14.8129 9.53792 14.6935 9.62935 14.5457C9.72077 14.3979 9.76925 14.2276 9.76934 14.0538V9.29478C9.76934 8.44109 10.3609 7.71657 11.1304 7.34775C12.1185 6.87381 12.9909 6.18927 13.6863 5.34222C14.3816 4.49516 14.8831 3.50614 15.1555 2.44461C15.4092 1.44301 14.5461 0.591187 13.5136 0.591187Z" fill="#AAAEB4" stroke="#AAAEB4" stroke-width="1.18241"/>
</svg>
