<svg width="159" height="155" viewBox="0 0 159 155" fill="none" xmlns="http://www.w3.org/2000/svg">
<path d="M101.407 3.15356C117.613 7.77314 132.44 17.3848 143.132 31.7651C149.13 39.8122 153.303 48.6415 155.724 57.7317C149.838 64.8846 142.648 69.9884 134.713 73.4904C122.158 77.3649 108.337 78.3335 94.515 77.3649C92.6896 77.2531 90.864 77.2531 89.1876 76.4707C87.9954 75.9492 87.3621 75.2413 87.1386 74.3845C86.8778 73.3041 87.2504 71.8884 87.9955 70.3237C88.6288 68.9826 89.4856 67.7159 90.2307 66.412C98.7993 51.8827 103.642 37.7631 104.164 24.1279C104.425 16.975 103.531 9.97116 101.333 3.1163L101.407 3.15356Z" fill="black"/>
<path d="M138.514 84.0333C125.065 87.7588 109.79 87.647 92.9886 84.1823C91.4984 83.8843 90.0082 83.4745 88.4808 83.2882C86.7298 83.0647 85.2397 83.1765 84.271 83.7725C83.5259 84.2196 83.0044 85.0019 82.8553 86.3058C82.6318 88.0941 83.1906 89.7705 83.6377 91.5215C86.9533 104.635 92.169 117.115 99.8062 127.547C105.692 133.843 112.883 138.947 121.712 142.188C129.833 137.121 137.135 130.527 143.133 122.48C153.825 108.137 158.594 91.3725 158.11 74.9059C152.112 79.0412 145.555 82.0588 138.514 84.0333Z" fill="black"/>
<path d="M90.7161 134.364C82.9299 123.039 78.3476 108.845 76.5221 92.1922C76.3731 90.702 76.2986 89.2118 76.0005 87.7216C75.6653 86.0079 75.1064 84.704 74.2496 83.9589C73.579 83.4001 72.6476 83.1766 71.3437 83.4373C69.5182 83.7726 68.0653 84.8158 66.5006 85.7471C54.7654 92.9 44.1478 101.58 36.3243 111.9C32.0027 119.276 29.2832 127.547 28.8361 136.712C36.2871 142.71 44.9674 147.441 54.6909 150.496C71.977 155.972 89.7848 155.264 105.693 149.713C99.8063 145.429 94.8514 140.288 90.7534 134.327L90.7161 134.364Z" fill="black"/>
<path d="M26.898 105.567C35.5411 94.8373 47.9469 86.1942 63.6311 79.3394C65.0095 78.7433 66.4624 78.1845 67.8036 77.4766C69.3683 76.657 70.486 75.7257 70.933 74.6825C71.3056 73.9002 71.1938 72.9688 70.5605 71.8139C69.6663 70.2492 68.2134 69.2061 66.7978 68.0512C56.2174 59.3709 44.4822 52.218 32.0391 48.1572C23.4706 46.4435 14.5667 46.4435 5.47653 48.865C1.93734 57.6199 0.00012207 67.1198 0.00012207 77.1041C0.00012207 94.8373 6.22163 111.118 16.5412 124.157C18.9255 117.376 22.3902 111.155 26.898 105.529V105.567Z" fill="black"/>
<path d="M35.243 37.4651C48.3566 42.1591 60.6507 50.9885 72.1624 63.4688C73.1682 64.5865 74.1741 65.7414 75.2917 66.7845C76.5957 67.9766 77.825 68.7217 78.9799 68.8335C79.8368 68.908 80.7682 68.5355 81.6623 67.6041C82.9289 66.2629 83.4878 64.5865 84.1584 62.9473C89.374 50.4297 92.6897 37.316 92.8014 24.5004C91.8328 16.0436 89.076 7.81033 83.8976 0.135871C74.2859 -0.422949 64.4134 0.731946 54.6899 3.78683C37.4037 9.26327 23.4333 20.0671 13.8961 33.6651C21.2352 33.7768 28.3509 35.0808 35.243 37.5396V37.4651Z" fill="black"/>
</svg>
