<svg width="33" height="33" viewBox="0 0 33 33" fill="none" xmlns="http://www.w3.org/2000/svg">
<path fill-rule="evenodd" clip-rule="evenodd" d="M17.8238 3.14315C17.7409 3.0321 17.6365 2.93889 17.5168 2.86909C17.3972 2.79928 17.2646 2.75431 17.1272 2.73685C16.9897 2.7194 16.8502 2.72982 16.7168 2.7675C16.5835 2.80518 16.4591 2.86934 16.3512 2.95615C13.7158 5.0715 11.9776 8.10493 11.485 11.4481C10.5827 10.7923 9.79124 9.99615 9.14065 9.09002C9.05242 8.96669 8.93807 8.86433 8.80576 8.79024C8.67344 8.71615 8.52642 8.67216 8.37515 8.66139C8.22389 8.65062 8.07211 8.67335 7.93064 8.72795C7.78916 8.78255 7.66147 8.86768 7.55665 8.97727C5.74072 10.8769 4.57668 13.3053 4.23315 15.9108C3.88962 18.5162 4.38445 21.1633 5.64595 23.4687C6.90744 25.7741 8.87011 27.6181 11.2496 28.7335C13.6292 29.8489 16.302 30.1778 18.881 29.6726C21.4599 29.1674 23.8111 27.8543 25.5939 25.9235C27.3767 23.9927 28.4985 21.5445 28.7969 18.9336C29.0953 16.3226 28.5548 13.6844 27.2536 11.4012C25.9524 9.11792 23.9581 7.30821 21.5597 6.23415C20.0852 5.51718 18.8042 4.45723 17.8238 3.14315ZM21.6559 19.5936C21.6554 20.3395 21.4931 21.0763 21.1802 21.7534C20.8672 22.4304 20.4112 23.0315 19.8434 23.5152C19.2757 23.9988 18.6097 24.3536 17.8916 24.5549C17.1734 24.7562 16.4202 24.7994 15.6837 24.6814C14.9473 24.5633 14.2452 24.287 13.6259 23.8713C13.0067 23.4556 12.4849 22.9105 12.0968 22.2737C11.7086 21.6368 11.4632 20.9233 11.3775 20.1824C11.2919 19.4415 11.3679 18.6908 11.6005 17.9821C12.464 18.6215 13.4568 19.0959 14.5334 19.3571C14.8264 17.4751 15.7616 15.7524 17.1803 14.4814C18.4192 14.6464 19.556 15.2557 20.3792 16.1961C21.2025 17.1364 21.6562 18.3438 21.6559 19.5936Z" fill="#848484"/>
</svg>
